<?xml version="1.0" standalone="no"?>
<!DOCTYPE svg PUBLIC "-//W3C//DTD SVG 20010904//EN"
 "http://www.w3.org/TR/2001/REC-SVG-20010904/DTD/svg10.dtd">
<svg version="1.0" xmlns="http://www.w3.org/2000/svg"
 width="532.000000pt" height="469.000000pt" viewBox="0 0 532.000000 469.000000"
 preserveAspectRatio="xMidYMid meet">

<g transform="translate(0.000000,469.000000) scale(0.100000,-0.100000)"
fill="#000000" stroke="none">
<path d="M2455 4684 c-77 -5 -282 -33 -315 -44 -14 -5 -42 -11 -62 -15 -46 -7
-282 -84 -368 -120 -340 -142 -655 -379 -911 -685 -277 -332 -471 -806 -514
-1260 -16 -169 -5 -424 26 -608 49 -294 189 -647 360 -904 77 -117 245 -315
354 -417 180 -168 408 -319 625 -415 36 -16 83 -37 105 -46 49 -22 242 -84
310 -100 28 -6 66 -15 85 -20 58 -14 160 -29 253 -36 l87 -7 0 24 c0 13 -7
154 -15 314 -19 371 -19 700 0 1040 16 298 18 314 46 465 85 464 104 612 97
768 -3 84 -8 106 -36 167 -18 39 -59 104 -90 144 l-57 75 -6 -60 c-7 -72 -25
-103 -80 -133 -36 -21 -51 -23 -138 -19 -185 7 -261 70 -355 291 -78 182 -118
217 -248 217 -68 0 -62 21 20 68 229 133 478 165 642 82 63 -32 158 -128 192
-193 29 -57 36 -157 13 -180 -16 -17 -15 -20 26 -66 24 -27 56 -66 72 -86 l27
-38 0 39 c0 21 -5 68 -11 104 -5 35 -8 75 -4 87 16 63 68 -14 87 -130 l13 -77
53 80 c29 44 65 91 80 105 l26 24 -58 -2 c-47 -2 -60 2 -72 17 -39 54 5 173
97 265 49 47 181 108 290 132 219 50 499 7 679 -102 l35 -22 -65 -30 c-102
-48 -152 -107 -245 -291 -47 -92 -94 -172 -115 -192 -49 -49 -164 -104 -231
-111 -159 -16 -291 97 -277 239 2 21 1 38 -2 38 -3 0 -19 -21 -36 -47 -84
-132 -114 -255 -124 -523 -8 -201 -14 -248 -74 -565 -39 -205 -50 -356 -49
-675 1 -460 44 -876 121 -1175 l18 -70 55 3 c97 5 282 33 384 57 592 142 1103
504 1439 1020 40 61 169 308 198 380 78 188 139 443 158 660 40 446 -39 874
-232 1260 -281 563 -758 979 -1351 1181 -224 77 -430 112 -688 118 -101 2
-211 2 -244 0z"/>
</g>
</svg>
